<svg width="498" height="101" viewBox="0 0 498 101" fill="none" xmlns="http://www.w3.org/2000/svg">
<mask id="mask0_60_2258" style="mask-type:luminance" maskUnits="userSpaceOnUse" x="0" y="0" width="498" height="101">
<path d="M497.971 0H0V100.987H497.971V0Z" fill="white"/>
</mask>
<g mask="url(#mask0_60_2258)">
<path d="M6.70305 13.7558C6.70305 11.4365 6.39018 9.60697 5.77806 8.26029C5.15913 6.90001 4.11852 6.02943 2.64941 5.64856V5.02283H52.6533V26.488H52.0548C52.0548 25.1142 51.7079 23.5498 51.021 21.8087C50.3272 20.0539 49.341 18.2652 48.0556 16.4492C46.7633 14.6196 45.2398 12.9397 43.485 11.4161C41.7439 9.89263 39.7919 8.66158 37.6358 7.71618C35.473 6.75718 33.1741 6.27428 30.7256 6.27428H26.672V37.5063H29.0933C30.6304 37.5063 32.2015 37.1935 33.7998 36.5541C35.3914 35.9012 36.8877 35.0714 38.2888 34.0512C39.683 33.0378 40.8461 31.902 41.7711 30.6505C42.7097 29.399 43.2946 28.1952 43.5122 27.0322H44.1108V49.2319H43.5122C43.2946 48.0349 42.7097 46.8242 41.7711 45.5864C40.8461 44.3553 39.683 43.2331 38.2888 42.2129C36.8877 41.1995 35.3914 40.3765 33.7998 39.7372C32.2015 39.0842 30.6304 38.7578 29.0933 38.7578H26.672V67.3781C26.672 69.6633 26.978 71.4997 27.597 72.8736C28.2091 74.2339 29.2565 75.1045 30.7256 75.4853V76.1111H2.64941V75.4853C4.11852 75.1045 5.15913 74.2339 5.77806 72.8736C6.39018 71.4997 6.70305 69.6633 6.70305 67.3781V13.7558Z" fill="#739AD4"/>
<path d="M53.915 76.1111V75.4853C55.3841 75.1045 56.4248 74.2339 57.0437 72.8736C57.6558 71.4997 57.9687 69.6633 57.9687 67.3781V13.7558C57.9687 11.4365 57.6558 9.60697 57.0437 8.26029C56.4248 6.90001 55.3841 6.02943 53.915 5.64856V5.02283H81.9912V5.64856C80.5221 6.02943 79.4747 6.90001 78.8626 8.26029C78.2436 9.60697 77.9376 11.4365 77.9376 13.7558V67.3781C77.9376 69.6633 78.2436 71.4997 78.8626 72.8736C79.4747 74.2339 80.5221 75.1045 81.9912 75.4853V76.1111H53.915Z" fill="#739AD4"/>
<path d="M118.458 67.1333C118.458 64.3991 117.975 62.0322 117.016 60.0326C116.071 58.0398 114.786 56.2986 113.153 54.8091C111.534 53.306 109.725 51.9389 107.712 50.7011C105.699 49.47 103.618 48.2662 101.482 47.0827C99.3396 45.9061 97.2515 44.6478 95.2247 43.3011C93.2115 41.9409 91.3955 40.3765 89.7836 38.5946C88.1649 36.799 86.8794 34.6906 85.9204 32.2557C84.9546 29.8072 84.4785 26.9234 84.4785 23.6043C84.4785 19.0746 85.5123 15.3542 87.58 12.45C89.6612 9.5322 92.4906 7.37615 96.0681 5.97506C99.6592 4.56037 103.672 3.85303 108.12 3.85303C110.365 3.85303 112.398 3.94825 114.214 4.12508C116.044 4.30872 117.873 4.50596 119.71 4.72361C121.539 4.92765 123.58 5.02287 125.831 5.02287C126.443 5.02287 127.117 4.93445 127.844 4.75081C128.565 4.55357 129.103 4.25431 129.449 3.85303H130.075V26.4881H129.449C129.232 24.7877 128.66 22.9514 127.735 20.9926C126.824 19.0338 125.654 17.1226 124.226 15.2522C122.791 13.3886 121.179 11.6746 119.383 10.1103C117.601 8.5528 115.745 7.32174 113.806 6.41035C111.881 5.48536 109.97 5.02287 108.066 5.02287C105.685 5.02287 103.672 5.77102 102.026 7.25373C100.394 8.72283 99.5776 10.8109 99.5776 13.511C99.5776 16.1228 100.047 18.3944 100.992 20.3124C101.951 22.2168 103.25 23.89 104.883 25.3182C106.529 26.7533 108.365 28.066 110.378 29.2631C112.405 30.4465 114.514 31.6027 116.69 32.7454C118.866 33.888 120.961 35.1395 122.974 36.4997C125.001 37.8464 126.838 39.3767 128.47 41.0975C130.116 42.8251 131.415 44.8723 132.36 47.246C133.319 49.606 133.802 52.3878 133.802 55.5981C133.802 58.6859 133.19 61.5493 131.98 64.195C130.782 66.8272 129.096 69.1193 126.919 71.0781C124.743 73.0233 122.172 74.5468 119.22 75.6486C116.261 76.7504 113.044 77.3082 109.562 77.3082C106.148 77.3082 103.06 77.0429 100.285 76.5192C97.5236 75.9955 94.9323 75.1861 92.5042 74.0979C90.0693 72.9961 87.648 71.5678 85.2403 69.8266V46.2394H85.9748C85.9748 47.1099 86.2537 48.443 86.8182 50.2386C87.3759 52.0205 88.1785 54.0338 89.2123 56.2782C90.2597 58.5295 91.5044 60.7943 92.9395 63.0796C94.3678 65.3649 95.9593 67.4869 97.7004 69.4457C99.4416 71.3909 101.298 72.9689 103.278 74.1795C105.25 75.3766 107.304 75.9751 109.426 75.9751C111.745 75.9751 113.561 75.5874 114.867 74.8052C116.187 74.0095 117.112 72.9485 117.642 71.6222C118.186 70.3027 118.458 68.8064 118.458 67.1333Z" fill="#739AD4"/>
<path d="M140.355 13.7558C140.355 11.4365 140.043 9.60697 139.43 8.26029C138.811 6.90001 137.771 6.02943 136.302 5.64856V5.02283H164.378V5.64856C162.909 6.02943 161.861 6.90001 161.249 8.26029C160.63 9.60697 160.324 11.4365 160.324 13.7558V34.2144H171.288V13.7558C171.288 11.4365 170.968 9.60697 170.336 8.26029C169.717 6.90001 168.683 6.02943 167.235 5.64856V5.02283H195.311V5.64856C193.842 6.02943 192.794 6.90001 192.182 8.26029C191.563 9.60697 191.257 11.4365 191.257 13.7558V67.3781C191.257 69.6633 191.563 71.4997 192.182 72.8736C192.794 74.2339 193.842 75.1045 195.311 75.4853V76.1111H167.235V75.4853C168.683 75.1045 169.717 74.2339 170.336 72.8736C170.968 71.4997 171.288 69.6633 171.288 67.3781V35.4659H160.324V67.3781C160.324 69.6633 160.63 71.4997 161.249 72.8736C161.861 74.2339 162.909 75.1045 164.378 75.4853V76.1111H136.302V75.4853C137.771 75.1045 138.811 74.2339 139.43 72.8736C140.043 71.4997 140.355 69.6633 140.355 67.3781V13.7558Z" fill="#739AD4"/>
<path d="M246.551 76.1111H196.547V75.4853C198.016 75.1045 199.057 74.2339 199.676 72.8736C200.288 71.4997 200.601 69.6633 200.601 67.3781V13.7558C200.601 11.4365 200.288 9.60697 199.676 8.26029C199.057 6.90001 198.016 6.02943 196.547 5.64856V5.02283H246.551V26.488H245.952C245.952 25.1142 245.605 23.5498 244.918 21.8087C244.225 20.0539 243.238 18.2652 241.953 16.4492C240.661 14.6196 239.137 12.9397 237.382 11.4161C235.641 9.89263 233.689 8.66158 231.533 7.71618C229.37 6.75718 227.072 6.27428 224.623 6.27428H220.569V37.5063H222.991C224.528 37.5063 226.099 37.1935 227.697 36.5541C229.289 35.9012 230.785 35.0714 232.186 34.0512C233.581 33.0378 234.744 31.902 235.669 30.6505C236.607 29.399 237.192 28.1952 237.41 27.0322H238.008V49.2319H237.41C237.192 48.0349 236.607 46.8242 235.669 45.5864C234.744 44.3553 233.581 43.2331 232.186 42.2129C230.785 41.1995 229.289 40.3765 227.697 39.7372C226.099 39.0842 224.528 38.7578 222.991 38.7578H220.569V74.8596H224.623C227.072 74.8596 229.37 74.3903 231.533 73.4449C233.689 72.4859 235.641 71.2413 237.382 69.7178C239.137 68.1942 240.661 66.5279 241.953 64.7119C243.238 62.8823 244.225 61.0936 244.918 59.3524C245.605 57.5977 245.952 56.0333 245.952 54.673H246.551V76.1111Z" fill="#739AD4"/>
<path d="M247.812 5.64856V5.02283H283.806C288.05 5.02283 291.573 5.77098 294.388 7.25369C297.218 8.72279 299.34 10.6816 300.755 13.1301C302.169 15.5786 302.877 18.2856 302.877 21.2374C302.877 24.3252 302.305 26.8825 301.163 28.9093C300.02 30.943 298.422 32.5481 296.375 33.7247C294.341 34.8878 291.981 35.7244 289.301 36.2277C286.635 36.7174 283.737 36.9622 280.622 36.9622C284.193 37.7104 287.111 38.8394 289.383 40.3629C291.648 41.8728 293.463 43.6412 294.824 45.668C296.198 47.6812 297.272 49.8237 298.034 52.0885C298.809 54.3398 299.449 56.5979 299.938 58.8627C300.442 61.1344 300.979 63.2564 301.544 65.2288C302.101 67.208 302.877 68.922 303.856 70.3707C304.835 71.8262 306.175 72.8668 307.882 73.4993C307.882 73.4993 307.746 73.6898 307.474 74.0706C307.202 74.4379 306.719 74.88 306.032 75.4037C305.339 75.9138 304.373 76.3559 303.121 76.7368C301.884 77.1177 300.292 77.3081 298.333 77.3081C294.416 77.3081 291.219 76.7436 288.757 75.6214C286.288 74.4991 284.377 72.996 283.017 71.1052C281.67 69.2008 280.704 67.0788 280.106 64.7391C279.521 62.3858 279.153 59.9441 278.99 57.4208C278.827 54.8839 278.698 52.4422 278.609 50.1025C278.534 47.7492 278.324 45.6272 277.984 43.7364C277.657 41.832 277.018 40.3221 276.079 39.1931C275.154 38.0708 273.739 37.5063 271.835 37.5063V67.3781C271.835 69.6633 272.141 71.4997 272.76 72.8736C273.372 74.2339 274.42 75.1045 275.889 75.4853V76.1111H247.812V75.4853C249.282 75.1045 250.322 74.2339 250.941 72.8736C251.553 71.4997 251.866 69.6633 251.866 67.3781V13.7558C251.866 11.4365 251.553 9.60697 250.941 8.26029C250.322 6.90001 249.282 6.02943 247.812 5.64856ZM273.087 5.839H271.835V36.2549H274.066C275.644 36.2549 277.099 35.7856 278.446 34.8402C279.806 33.8812 280.895 32.2556 281.711 29.9704C282.527 27.6851 282.935 24.5497 282.935 20.5572C282.935 18.0203 282.642 15.6262 282.064 13.3749C281.479 11.1305 280.486 9.31451 279.072 7.93383C277.657 6.53954 275.657 5.839 273.087 5.839Z" fill="#739AD4"/>
<path d="M308.185 75.4853C309.654 75.1045 310.694 74.2339 311.313 72.8736C311.925 71.4997 312.238 69.6633 312.238 67.3781V13.7558C312.238 11.4365 311.925 9.60697 311.313 8.26029C310.694 6.90001 309.654 6.02943 308.185 5.64856V5.02283H331.962L345.783 47.6268L355.767 5.02283H379.79V5.64856C378.321 6.02943 377.273 6.90001 376.661 8.26029C376.042 9.60697 375.736 11.4365 375.736 13.7558V67.3781C375.736 69.6633 376.042 71.4997 376.661 72.8736C377.273 74.2339 378.321 75.1045 379.79 75.4853V76.1111H351.714V75.4853C353.162 75.1045 354.196 74.2339 354.815 72.8736C355.448 71.4997 355.767 69.6633 355.767 67.3781V11.1441L340.559 76.1111H335.009L313.49 9.83822V23.4954C313.49 26.8553 313.687 30.4057 314.088 34.16C314.483 37.9008 315.054 41.6348 315.802 45.3687C316.543 49.1095 317.434 52.7006 318.468 56.1422C319.516 59.5701 320.658 62.6851 321.896 65.4737C323.148 68.2486 324.481 70.5067 325.895 72.2479C327.31 73.989 328.786 75.0704 330.33 75.4853V76.1111H308.185V75.4853Z" fill="#739AD4"/>
<path d="M379.478 76.1111V75.4853C380.273 75.4853 381.035 74.9276 381.763 73.7986C382.484 72.6764 383.164 71.2413 383.803 69.5001C384.456 67.7589 385.041 65.909 385.572 63.9502C386.116 61.9914 386.592 60.189 387.013 58.5362C388.102 54.333 389.088 50.4494 389.979 46.8922C390.863 43.3419 391.72 39.9276 392.536 36.6629C393.352 33.3983 394.155 30.1472 394.958 26.8961C395.774 23.6315 396.631 20.2172 397.542 16.6396C398.467 13.0485 399.446 9.17848 400.48 5.02283H421.129C422.218 9.17848 423.204 13.0485 424.095 16.6396C424.979 20.2172 425.843 23.6315 426.679 26.8961C427.509 30.1472 428.346 33.3983 429.182 36.6629C430.012 39.9276 430.869 43.3419 431.74 46.8922C432.61 50.4494 433.562 54.333 434.596 58.5362C435.011 60.189 435.494 61.9914 436.038 63.9502C436.582 65.909 437.167 67.7589 437.806 69.5001C438.459 71.2413 439.146 72.6764 439.874 73.7986C440.595 74.9276 441.35 75.4853 442.132 75.4853V76.1111H410.846V75.4853C412.383 74.3291 413.376 72.6492 413.811 70.4523C414.246 68.2418 414.342 65.7389 414.11 62.9436C413.893 60.1346 413.464 57.2712 412.832 54.3466H395.257C395.672 59.1756 396.631 63.372 398.141 66.9428C399.664 70.5203 401.881 73.3633 404.806 75.4853V76.1111H379.478ZM401.052 7.14486C398.964 16.2519 397.365 24.6789 396.263 32.4189C395.175 40.1453 394.821 47.0419 395.202 53.0951H412.587C412.206 51.4832 411.811 49.8985 411.417 48.3341C411.036 46.7766 410.682 45.2871 410.356 43.8724C409.594 40.975 408.921 38.3769 408.343 36.0916C407.758 33.7927 407.207 31.6163 406.683 29.5623C406.173 27.5151 405.649 25.4134 405.105 23.2506C404.561 21.0741 403.963 18.7004 403.31 16.1227C402.67 13.5518 401.922 10.5592 401.052 7.14486Z" fill="#739AD4"/>
<path d="M441.837 5.64856V5.02283H462.16L491.732 55.7341V51.6804C491.732 48.5994 491.521 45.3551 491.106 41.9408C490.685 38.5333 490.106 35.1258 489.365 31.7115C488.617 28.304 487.746 25.0734 486.753 22.0263C485.754 18.9657 484.638 16.2179 483.407 13.783C482.169 11.3549 480.891 9.42333 479.571 7.98824C478.245 6.55994 476.891 5.77778 475.517 5.64856V5.02283H497.037V5.64856C495.582 6.02943 494.541 6.90001 493.908 8.26029C493.29 9.60697 492.983 11.4365 492.983 13.7558V67.3781C492.983 69.6633 493.29 71.4997 493.908 72.8736C494.541 74.2339 495.582 75.1045 497.037 75.4853V76.1111H479.762L447.142 20.1219V23.4954C447.142 26.8553 447.339 30.4057 447.741 34.16C448.135 37.9008 448.706 41.6348 449.454 45.3687C450.196 49.1095 451.087 52.7006 452.121 56.1422C453.168 59.5701 454.311 62.6851 455.549 65.4737C456.8 68.2486 458.133 70.5067 459.548 72.2479C460.962 73.989 462.438 75.0704 463.982 75.4853V76.1111H441.837V75.4853C443.306 75.1045 444.347 74.2339 444.966 72.8736C445.578 71.4997 445.891 69.6633 445.891 67.3781V13.7558C445.891 11.4365 445.578 9.60697 444.966 8.26029C444.347 6.90001 443.306 6.02943 441.837 5.64856Z" fill="#739AD4"/>
</g>
<mask id="mask1_60_2258" style="mask-type:luminance" maskUnits="userSpaceOnUse" x="139" y="81" width="220" height="20">
<path d="M358.679 81.8345H139.293V100.987H358.679V81.8345Z" fill="white"/>
</mask>
<g mask="url(#mask1_60_2258)">
<path d="M142.676 95.2974V87.3534H147.491V88.2784H143.655V90.7813H147.192V91.7063H143.655V94.3724H147.6V95.2974H142.676Z" fill="#739AD4"/>
<path d="M158.607 95.2974V87.3534H159.532L163.94 93.5835V87.3534H164.892V95.2974H163.967L159.587 89.0673V95.2974H158.607Z" fill="#739AD4"/>
<path d="M178.227 95.2974V88.3056H175.533V87.3534H181.899V88.3056H179.233V95.2974H178.227Z" fill="#739AD4"/>
<path d="M192.561 95.2974V87.3534H197.376V88.2784H193.54V90.7813H197.077V91.7063H193.54V94.3724H197.485V95.2974H192.561Z" fill="#739AD4"/>
<path d="M208.492 95.2974V87.3534H211.512C212.056 87.3534 212.525 87.4622 212.927 87.6799C213.342 87.8839 213.661 88.1696 213.879 88.5504C214.11 88.9313 214.233 89.387 214.233 89.9107C214.233 90.5501 214.069 91.0806 213.743 91.5159C213.416 91.9375 212.961 92.2164 212.383 92.3592L214.369 95.2974H213.172L211.213 92.4408H209.472V95.2974H208.492ZM209.472 91.4886H211.403C211.981 91.4886 212.423 91.3526 212.736 91.0806C213.063 90.8085 213.226 90.4208 213.226 89.9107C213.226 89.4074 213.063 89.0129 212.736 88.7409C212.423 88.4552 211.981 88.3056 211.403 88.3056H209.472V91.4886Z" fill="#739AD4"/>
<path d="M227.214 95.2974V88.3056H224.521V87.3534H230.887V88.3056H228.22V95.2974H227.214Z" fill="#739AD4"/>
<path d="M240.569 95.2974L243.834 87.3534H244.759L248.024 95.2974H246.99L246.228 93.5019H242.365L241.63 95.2974H240.569ZM242.746 92.5769H245.847L244.297 88.7409L242.746 92.5769Z" fill="#739AD4"/>
<path d="M258.49 95.2974V87.3534H259.47V95.2974H258.49Z" fill="#739AD4"/>
<path d="M270.891 95.2974V87.3534H271.816L276.223 93.5835V87.3534H277.175V95.2974H276.25L271.87 89.0673V95.2974H270.891Z" fill="#739AD4"/>
<path d="M288.605 95.2974V87.3534H289.53L292.632 92.06L295.733 87.3534H296.658V95.2974H295.679V89.2306L293.04 93.1754H292.224L289.585 89.2034V95.2974H288.605Z" fill="#739AD4"/>
<path d="M308.092 95.2974V87.3534H312.907V88.2784H309.071V90.7813H312.608V91.7063H309.071V94.3724H313.016V95.2974H308.092Z" fill="#739AD4"/>
<path d="M324.022 95.2974V87.3534H324.947L329.355 93.5835V87.3534H330.307V95.2974H329.382L325.002 89.0673V95.2974H324.022Z" fill="#739AD4"/>
<path d="M343.642 95.2974V88.3056H340.948V87.3534H347.314V88.3056H344.648V95.2974H343.642Z" fill="#739AD4"/>
</g>
</svg>
